<svg xmlns="http://www.w3.org/2000/svg" width="80" height="36" viewBox="0 0 80 36" fill="none">
    <path d="M24.2935 30.1206H25.3865V34.1668H27.806V35.0853H24.2935V30.1206Z" fill="white"/>
    <path d="M35.8368 30.1206H39.552V31.0391H36.9298V32.1014H39.3365V32.9506H36.9298V34.1668H39.6084V35.0853H35.8368V30.1206Z" fill="white"/>
    <path d="M47.7639 30.1206H48.8492L50.9223 33.4509H50.9352V30.1206H51.9589V35.0853H50.8659L48.8005 31.7601H48.7876V35.0853H47.7639V30.1206Z" fill="white"/>
    <path d="M61.0825 33.4382C61.0825 34.1002 61.5982 34.3568 62.1806 34.3568C62.5629 34.3568 63.1479 34.2464 63.1479 33.7384C63.1479 33.2022 62.4038 33.1124 61.6726 32.9174C60.9337 32.7224 60.1922 32.4376 60.1922 31.5062C60.1922 30.4902 61.1517 30.0052 62.0498 30.0052C63.0863 30.0052 64.0382 30.4568 64.0382 31.6037H62.9811C62.9478 31.0059 62.5218 30.8545 62.001 30.8545C61.6546 30.8545 61.2492 31.0008 61.2492 31.4164C61.2492 31.7987 61.4853 31.8475 62.7322 32.1682C63.094 32.258 64.2075 32.4889 64.2075 33.6153C64.2075 34.5261 63.4917 35.2086 62.1421 35.2086C61.044 35.2086 60.0151 34.6672 60.028 33.4433H61.085L61.0825 33.4382Z" fill="white"/>
    <path d="M15.1815 20.6842C14.4426 21.672 13.2444 22.7265 11.2713 22.7265C7.78446 22.7265 5.52917 19.6964 5.52917 15.1191C5.52917 12.969 6.51442 11.2089 7.99485 11.173C10.6016 11.1371 10.2835 16.4918 13.8781 16.7022C15.7819 16.7714 16.449 15.7169 16.449 14.6598C16.449 11.5245 13.0673 9.41033 8.94674 9.44625C4.1565 9.48217 0 12.7227 0 18.2185C0 22.8343 3.62796 27.0601 9.15713 27.0601C13.9833 27.0601 16.4131 24.1351 16.5208 21.0716C16.5208 20.2968 15.6408 20.1197 15.1815 20.6842Z" fill="white"/>
    <path d="M78.4886 22.8339V10.3284C78.4886 9.69469 77.9601 9.48173 76.9389 9.62284L71.692 10.3284C71.1993 10.3977 70.8812 10.7518 70.8812 11.1392V11.2803C70.8812 12.1604 72.2898 12.5837 72.2898 14.2386V21.2123C72.2898 22.0564 72.1256 22.7723 71.8536 23.3393C71.7843 23.3855 71.1249 23.8037 70.7041 23.7883C70.2603 23.7703 69.9293 24.1757 70.0601 24.204C70.1345 24.2194 70.5938 24.322 70.9787 24.4092C70.9761 24.4092 70.9735 24.4143 70.971 24.4169C71.7125 24.5709 72.4129 24.7274 73.0621 24.8787C76.0614 25.5843 78.0653 26.2386 79.1762 26.6414C79.7022 26.4644 79.9998 26.1898 79.9998 25.7562C79.9998 24.3117 78.4835 25.687 78.4835 22.8339" fill="white"/>
    <path d="M37.6724 20.9532C36.9309 20.8916 36.759 20.6889 36.718 20.5786L36.4229 16.494C36.0355 11.1752 32.7949 9.44843 29.7289 9.44843C27.9329 9.44843 26.4524 10.0462 25.4313 11.1033V0.889109C25.4313 0.0783343 24.9027 -0.203897 24.0919 0.150175L18.5243 2.61585C18.0317 2.82624 17.7135 3.18032 17.7135 3.6011V3.70629C17.7135 4.69154 19.4402 4.86858 19.4402 6.52348V22.8673C19.4402 24.4888 17.8905 24.8762 17.8905 25.8974V26.0385C17.8905 26.0513 17.8982 26.0616 17.8982 26.0719C20.328 25.0122 22.9194 24.086 25.6622 23.3547C25.6288 23.2034 25.6057 23.0443 25.6057 22.8673V15.188C25.6057 13.1457 26.3447 11.7704 27.8944 11.7704C29.4441 11.7704 30.183 13.0738 30.36 16.2784L30.6833 22.2771C32.6513 21.9564 34.6885 21.7409 36.7924 21.6537L38.2856 21.6075C38.2856 21.6075 38.36 21.0097 37.6673 20.9532" fill="white"/>
    <path d="M47.3231 21.2739C46.9305 21.1712 46.7124 20.7556 46.7124 20.7556L46.8176 10.3284C46.8176 9.69469 46.1839 9.48173 45.1627 9.62284L39.9132 10.3284C39.4206 10.3977 39.1024 10.7518 39.1024 11.1392V11.2803C39.1024 12.1604 40.511 12.5837 40.511 14.2386V20.1219C40.511 20.2604 40.5213 20.3913 40.529 20.5247C40.5238 20.517 40.5136 20.5016 40.5136 20.5016C40.5136 20.5016 40.3827 20.9763 39.9209 21.0096C39.4642 21.043 39.6079 21.6049 39.6079 21.6049C39.6079 21.6049 40.0389 21.5946 40.6367 21.6049C40.6367 21.6074 40.6367 21.61 40.6367 21.6151C42.7509 21.6305 44.783 21.6716 46.7124 21.7383C46.9972 21.7485 47.8516 21.7819 47.8516 21.7819C47.8516 21.7819 47.8516 21.415 47.3231 21.2764" fill="white"/>
    <path d="M58.0633 21.908C57.7733 21.831 57.5655 21.477 57.4911 21.3307V10.3288C57.4911 9.69506 56.9625 9.48211 55.9414 9.62579L50.6944 10.3288C50.2018 10.3981 49.8837 10.7522 49.8837 11.1396V11.2807C49.8837 12.1607 51.2923 12.5841 51.2923 14.239V20.874C51.2769 20.9381 51.1511 21.4179 50.7688 21.4539C50.2608 21.5026 50.207 21.89 50.2737 21.8926C50.325 21.8952 50.8817 21.926 51.2486 21.9465C53.468 22.0773 55.5463 22.2415 57.4937 22.4263L58.6688 22.5417C58.6688 22.5417 58.6688 22.0594 58.0658 21.9029" fill="white"/>
    <path d="M69.0978 23.3294C68.6591 23.06 67.9945 22.6033 67.8124 22.4776C67.7354 21.9927 67.6995 21.4231 67.7072 20.7534L67.8124 10.3262C67.8124 9.6925 67.1786 9.47954 66.1575 9.62323L60.9079 10.3262C60.4153 10.3955 60.0972 10.7496 60.0972 11.137V11.2781C60.0972 12.1582 61.5058 12.5815 61.5058 14.2364V20.1197C61.5058 20.3788 61.516 20.6303 61.5365 20.8766L61.5263 20.8612C61.5263 20.8612 61.534 20.8971 61.5442 20.9484C61.5596 21.1229 61.5827 21.2922 61.6084 21.459C61.6264 21.8182 61.5802 22.2185 61.28 22.28C60.7206 22.3955 60.4897 22.747 60.4897 22.747C60.4897 22.747 61.398 22.8573 61.9727 22.9292C64.3152 23.2268 66.414 23.5526 68.2793 23.8913L69.6623 24.1402C69.6623 24.1402 69.6058 23.645 69.0952 23.332" fill="white"/>
</svg>